<svg height="512" viewBox="0 0 64 64" width="512" xmlns="http://www.w3.org/2000/svg"><g id="Contract"><path d="m10 3h44v22h-44z" fill="#7ed63e"/><path d="m52 3h2v22h-2z" fill="#71c138"/><path d="m46.849 44.607-11.313-11.314-.005-.005-2.117 2.126-12.728 12.728-1.414 1.414a2 2 0 1 0 2.828 2.829l1.414-1.414-1.414 1.414 2.121-2.122-2.121 2.122a2 2 0 0 0 2.828 2.828l1.415-1.413-1.414 1.414a2 2 0 0 0 2.828 2.829l1.415-1.415-1.415 1.415a2.016 2.016 0 0 0 0 2.828 2.006 2.006 0 0 0 2.829 0l16.268-16.271z" fill="#ffb7a5"/><path d="m12.91 43.19 14.14-14.14-4.05-4.05h-6-5.7l-8.29 8.29z" fill="#006df0"/><path d="m41 25-4.05 4.05 14.14 14.14 9.9-9.9-8.29-8.29h-5.7z" fill="#004fac"/><g fill="#ffcdc1"><path d="m29.879 40.364a2 2 0 0 0 2.828 0l2.121 2.121a2 2 0 1 0 2.829-2.828l-4.243-4.243-1.414-1.414-3.536-.707-11.313 11.314 3.535 3.535 8.486-8.485z"/><path d="m32 56.627a2 2 0 0 0 0 2.829l1.414 1.414a2 2 0 1 0 2.829-2.828l-1.415-1.415a2 2 0 0 0 -2.828 0z"/><path d="m34.828 53.8a2 2 0 0 0 0 2.828l1.415 1.415a2 2 0 0 0 2.828-2.829l-1.414-1.414a2 2 0 0 0 -2.829 0z"/><path d="m37.657 50.971a2 2 0 0 0 0 2.828l1.414 1.414a2 2 0 0 0 2.829-2.828l-1.414-1.414a2 2 0 0 0 -2.829 0z"/><path d="m40.485 48.142a2 2 0 0 0 0 2.829l1.415 1.414a2 2 0 1 0 2.829-2.829l-1.414-1.414a2 2 0 0 0 -2.83 0z"/></g><path d="m13.393 35.536h16v4h-16z" fill="#d1e7f8" transform="matrix(.707 -.707 .707 .707 -20.276 26.121)"/><path d="m41.192 30.948h.004v16h-.004z" fill="#ff9811" transform="matrix(.707 -.707 .707 .707 -15.475 40.536)"/><path d="m40.61 29.534h3.996v16h-3.996z" fill="#57a4ff" transform="matrix(.707 -.707 .707 .707 -14.061 41.122)"/><path d="m10 18v7h7a7 7 0 0 0 -7-7z" fill="#4e901e"/><path d="m47 25h7v-7a7 7 0 0 0 -7 7z" fill="#4e901e"/><path d="m17 3h-7v7a7 7 0 0 0 7-7z" fill="#4e901e"/><path d="m54 10v-7h-7a7 7 0 0 0 7 7z" fill="#4e901e"/><path d="m52 18.293v6.707h2v-7a7.02 7.02 0 0 0 -2 .293z" fill="#46821b"/><path d="m52 3v6.707a7.02 7.02 0 0 0 2 .293v-7z" fill="#46821b"/><circle cx="32" cy="14" fill="#f1f2f2" r="8"/><path d="m32 5a9 9 0 1 0 9 9 9.011 9.011 0 0 0 -9-9zm0 16a7 7 0 1 1 7-7 7.008 7.008 0 0 1 -7 7z" fill="#231f20"/><path d="m33 20v-1a3 3 0 0 0 0-6h-2a1 1 0 0 1 0-2h2a1 1 0 0 1 1 1 1 1 0 0 0 2 0 3 3 0 0 0 -3-3v-1a1 1 0 0 0 -2 0v1a3 3 0 0 0 0 6h2a1 1 0 0 1 0 2h-2a1 1 0 0 1 -1-1 1 1 0 0 0 -2 0 3 3 0 0 0 3 3v1a1 1 0 0 0 2 0z" fill="#231f20"/><path d="m61.7 32.58-6.95-6.94a.984.984 0 0 0 .25-.64v-22a1 1 0 0 0 -1-1h-44a1 1 0 0 0 -1 1v22a.984.984 0 0 0 .25.64l-6.95 6.94a1.014 1.014 0 0 0 0 1.42l9.9 9.9a1.014 1.014 0 0 0 1.42 0l.7-.71 4.95 4.95-.71.71a3.018 3.018 0 0 0 0 4.24 2.949 2.949 0 0 0 1.97.86 3 3 0 0 0 .86 1.97 2.929 2.929 0 0 0 1.97.86 2.943 2.943 0 0 0 2.83 2.83 2.962 2.962 0 0 0 .86 1.97 3.018 3.018 0 0 0 4.24 0l.71-.71.71.71a2.983 2.983 0 0 0 5.1-1.97 3.025 3.025 0 0 0 1.97-.86 2.989 2.989 0 0 0 .86-1.97 2.944 2.944 0 0 0 2.83-2.82 2.955 2.955 0 0 0 1.96-.87h.01a3.009 3.009 0 0 0 -.01-4.24l-.7-.71 4.95-4.95.7.71a1.014 1.014 0 0 0 1.42 0l9.9-9.9a1.014 1.014 0 0 0 0-1.42zm-8.7-28.58v4.91a5.992 5.992 0 0 1 -4.91-4.91zm-42 0h4.91a5.992 5.992 0 0 1 -4.91 4.91zm0 6.93a8 8 0 0 0 6.93-6.93h28.14a8 8 0 0 0 6.93 6.93v6.14a8 8 0 0 0 -6.93 6.93h-28.14a8 8 0 0 0 -6.93-6.93zm42 8.16v4.91h-4.91a5.992 5.992 0 0 1 4.91-4.91zm-16.76 10.67.71.7-2.1 2.1c-.01.01-.02.01-.03.02l-1.41 1.42-.7-.71a1.014 1.014 0 0 0 -.51-.27l-3.24-.65-1.91-1.91.71-.7a1.008 1.008 0 0 0 0-1.42l-2.35-2.34h13.18l-2.35 2.34a1.008 1.008 0 0 0 0 1.42zm-25.24-10.67a5.992 5.992 0 0 1 4.91 4.91h-4.91zm1.91 22.69-8.49-8.49 7.29-7.29h10.88l3.05 3.05zm2.83 0 9.9-9.9 1.41 1.41-9.9 9.9zm2.82 2.83 10.23-10.23 2.72.54 5.44 5.44a1.008 1.008 0 0 1 0 1.42 1 1 0 0 1 -1.41 0l-2.13-2.12a1.014 1.014 0 0 0 -1.41 0 1.024 1.024 0 0 1 -1.41 0l-.71-.71a1.008 1.008 0 0 0 -1.42 0l-7.77 7.78zm16.98 15.55a1.027 1.027 0 0 1 -1.42 0l-1.41-1.41a1.008 1.008 0 0 1 0-1.42 1 1 0 0 1 1.41 0l1.42 1.42a1.014 1.014 0 0 1 0 1.41zm2.82-2.83a.987.987 0 0 1 -1.41 0l-1.41-1.41a1 1 0 0 1 0-1.41.97.97 0 0 1 .7-.3.992.992 0 0 1 .71.3l1.41 1.41a1 1 0 0 1 .3.71.976.976 0 0 1 -.3.7zm2.83-2.82a1 1 0 0 1 -1.41 0l-1.42-1.42a.99.99 0 0 1 -.29-.71 1.025 1.025 0 0 1 1-1 1 1 0 0 1 .71.3l1.41 1.41a1.008 1.008 0 0 1 0 1.42zm2.83-2.83a1.024 1.024 0 0 1 -1.41 0l-1.42-1.42a1 1 0 0 1 0-1.41 1.014 1.014 0 0 1 1.42 0l1.41 1.41a1.008 1.008 0 0 1 0 1.42zm-.84-4.82a2.981 2.981 0 0 0 -4.27 2.57 2.973 2.973 0 0 0 -1.96.83 2.942 2.942 0 0 0 -.86 1.97 3.025 3.025 0 0 0 -1.97.86 2.977 2.977 0 0 0 -.86 1.99 2.938 2.938 0 0 0 -2.54 4.25l-.84.83a1.008 1.008 0 0 1 -1.42 0 .972.972 0 0 1 -.28-.72.951.951 0 0 1 .28-.69l1.42-1.42a1 1 0 0 0 0-1.41 1.008 1.008 0 0 0 -1.42 0l-1.41 1.41a1 1 0 1 1 -1.41-1.41l1.41-1.41a1.008 1.008 0 0 0 0-1.42 1 1 0 0 0 -1.41 0l-1.42 1.42a1 1 0 0 1 -1.41 0 1.008 1.008 0 0 1 0-1.42l2.12-2.12a1 1 0 0 0 0-1.41 1.008 1.008 0 0 0 -1.42 0l-2.12 2.12a1 1 0 0 1 -1.41 0 1.008 1.008 0 0 1 0-1.42l9.19-9.19a3.084 3.084 0 0 0 3.42.59l1.53 1.53a3 3 0 1 0 4.24-4.24l-3.53-3.54.7-.71 9.91 9.91zm3.67-3.67-9.9-9.9 1.41-1.41 9.9 9.9zm4.24-1.41-12.73-12.73 3.05-3.05h10.88l7.29 7.29z" fill="#231f20"/><path d="m47 13h-3a1 1 0 0 0 0 2h3a1 1 0 0 0 0-2z" fill="#231f20"/><path d="m20 13h-3a1 1 0 0 0 0 2h3a1 1 0 0 0 0-2z" fill="#231f20"/></g></svg>