<?xml version="1.0" encoding="utf-8"?>
<!-- Generator: Adobe Illustrator 25.0.1, SVG Export Plug-In . SVG Version: 6.00 Build 0)  -->
<svg version="1.1" id="Camada_1" xmlns="http://www.w3.org/2000/svg" xmlns:xlink="http://www.w3.org/1999/xlink" x="0px" y="0px"
	 viewBox="0 0 216.1 216.1" style="enable-background:new 0 0 216.1 216.1;" xml:space="preserve">
<style type="text/css">
	.st0{fill:#424242;}
	.st1{fill:#A5A5A5;}
	.st2{fill:#777777;}
	.st3{fill:#00E676;}
	.st4{fill:#F4F4F4;}
	.st5{fill:#242424;}
	.st6{fill:#C6C6C6;}
	.st7{fill:#919191;}
</style>
<rect x="35.6" y="49.1" class="st0" width="144.8" height="14.5"/>
<path class="st1" d="M11.5,116.7h193.1V82.9c0-10.6-8.7-19.3-19.3-19.3H30.8c-10.6,0-19.3,8.7-19.3,19.3V116.7z"/>
<path class="st2" d="M30.8,169.8h154.5c10.6,0,19.3-8.7,19.3-19.3v-38.6H11.5v38.6C11.5,161.1,20.2,169.8,30.8,169.8z"/>
<circle class="st3" cx="185.3" cy="82.9" r="4.8"/>
<rect x="45.3" y="15.3" class="st4" width="125.5" height="48.3"/>
<path class="st5" d="M173.2,145.7H42.9c-3.9,0-7.2-3.4-7.2-7.2l0,0c0-3.9,3.4-7.2,7.2-7.2h130.4c3.9,0,7.2,3.4,7.2,7.2l0,0
	C180.5,142.3,177.1,145.7,173.2,145.7z"/>
<rect x="45.3" y="145.7" class="st4" width="125.5" height="53.1"/>
<rect x="45.3" y="136" class="st6" width="125.5" height="9.7"/>
<g>
	<rect x="69.4" y="155.3" class="st7" width="82.1" height="9.7"/>
	<rect x="69.4" y="174.6" class="st7" width="62.8" height="9.7"/>
</g>
</svg>
