<?xml version="1.0" encoding="utf-8"?>
<!-- Generator: Adobe Illustrator 25.0.1, SVG Export Plug-In . SVG Version: 6.00 Build 0)  -->
<svg version="1.1" id="Layer_1" xmlns="http://www.w3.org/2000/svg" xmlns:xlink="http://www.w3.org/1999/xlink" x="0px" y="0px"
	 viewBox="0 0 512 512" style="enable-background:new 0 0 512 512;" xml:space="preserve">
<style type="text/css">
	.st0{fill:#FFE197;}
	.st1{fill:#FF4E45;}
	.st2{fill:#FFAA00;}
	.st3{fill:#4D56FF;}
	.st4{fill:#09AF00;}
	.st5{fill:#C9C9C9;}
</style>
<path class="st0" d="M129.4,101.5C58.1,136.5,17,244.6,58,328.2c42.7,86.9,160.7,120,228,80.2c42.7-25.2,72.7-84.3,56-114.6
	c-19-34.5-86.5-10.4-107-45.9c-23-39.9,47.1-96.9,25.5-135C243.2,82.4,175.5,78.8,129.4,101.5z M281.6,361.3
	c-12.8,12.8-33.5,12.8-46.3,0s-12.8-33.5,0-46.3s33.5-12.8,46.3,0C294.4,327.7,294.4,348.5,281.6,361.3L281.6,361.3z"/>
<circle class="st1" cx="167.8" cy="350.5" r="19.9"/>
<circle class="st2" cx="109" cy="175.4" r="18.5"/>
<ellipse class="st3" cx="86.2" cy="244.1" rx="22.5" ry="22.5"/>
<circle class="st4" cx="106.6" cy="313" r="25.9"/>
<ellipse transform="matrix(0.9952 -9.758556e-02 9.758556e-02 0.9952 -26.169 40.5336)" class="st5" cx="401.3" cy="287.8" rx="23" ry="119.1"/>
<g>
	<g>
		<path id="XMLID_1_" class="st0" d="M403.2,207.4c-14.4,6.2-32.4,1.1-42.1-10.6c-12.5-15-6.8-35.2-5.1-40.1
			c4.8-14.4,12.6-12.6,18.4-29.4c4.9-14.1,5.4-32.3,5.4-32.3l0,0c0,0,22.9,15.1,35.2,35.3c3.2,5.2,15.6,25.6,9.4,48.7
			C423,184.4,418.5,200.8,403.2,207.4z"/>
	</g>
</g>
</svg>
